<?xml version="1.0" encoding="UTF-8" standalone="no"?>
<!-- Created with Inkscape (http://www.inkscape.org/) -->

<svg
   xmlns:dc="http://purl.org/dc/elements/1.1/"
   xmlns:cc="http://creativecommons.org/ns#"
   xmlns:rdf="http://www.w3.org/1999/02/22-rdf-syntax-ns#"
   xmlns:svg="http://www.w3.org/2000/svg"
   xmlns="http://www.w3.org/2000/svg"
   xmlns:sodipodi="http://sodipodi.sourceforge.net/DTD/sodipodi-0.dtd"
   xmlns:inkscape="http://www.inkscape.org/namespaces/inkscape"
   width="32"
   height="32"
   id="svg2"
   version="1.1"
   inkscape:version="0.48.4 r9939"
   sodipodi:docname="customer_good.svg"
   inkscape:export-filename="C:\Users\Leif\Programmering\HTML5\IntelligentHomes\www\images\customer_good.png"
   inkscape:export-xdpi="90"
   inkscape:export-ydpi="90">
  <defs
     id="defs4">
    <inkscape:path-effect
       effect="spiro"
       id="path-effect3778"
       is_visible="true" />
  </defs>
  <sodipodi:namedview
     id="base"
     pagecolor="#ffffff"
     bordercolor="#666666"
     borderopacity="1.0"
     inkscape:pageopacity="0.0"
     inkscape:pageshadow="2"
     inkscape:zoom="11.2"
     inkscape:cx="-6.0454636"
     inkscape:cy="17.531076"
     inkscape:document-units="px"
     inkscape:current-layer="layer1"
     showgrid="false"
     inkscape:window-width="1594"
     inkscape:window-height="729"
     inkscape:window-x="225"
     inkscape:window-y="251"
     inkscape:window-maximized="0" />
  <metadata
     id="metadata7">
    <rdf:RDF>
      <cc:Work
         rdf:about="">
        <dc:format>image/svg+xml</dc:format>
        <dc:type
           rdf:resource="http://purl.org/dc/dcmitype/StillImage" />
        <dc:title></dc:title>
      </cc:Work>
    </rdf:RDF>
  </metadata>
  <g
     inkscape:label="Layer 1"
     inkscape:groupmode="layer"
     id="layer1"
     transform="translate(0,-1020.3622)">
    <path
       transform="matrix(0.78334216,0,0,0.78076329,4.676261,1027.4307)"
       d="m 29.553572,22.357143 c 0,4.388692 -3.557737,7.946429 -7.946429,7.946429 -4.388691,0 -7.946428,-3.557737 -7.946428,-7.946429 0,-4.388691 3.557737,-7.946428 7.946428,-7.946428 4.388692,0 7.946429,3.557737 7.946429,7.946428 z"
       sodipodi:ry="7.9464288"
       sodipodi:rx="7.9464288"
       sodipodi:cy="22.357143"
       sodipodi:cx="21.607143"
       id="path3781"
       style="fill:#9b9b9b;fill-opacity:1;fill-rule:nonzero;stroke:#666666;stroke-width:0.59714723;stroke-miterlimit:4;stroke-opacity:1;stroke-dasharray:none"
       sodipodi:type="arc" />
    <path
       sodipodi:type="arc"
       style="fill:#e3db53;fill-opacity:1;fill-rule:nonzero;stroke:#a99e22;stroke-width:0.59714723;stroke-miterlimit:4;stroke-opacity:1;stroke-dasharray:none"
       id="path3779"
       sodipodi:cx="21.607143"
       sodipodi:cy="22.357143"
       sodipodi:rx="7.9464288"
       sodipodi:ry="7.9464288"
       d="m 29.553572,22.357143 c 0,4.388692 -3.557737,7.946429 -7.946429,7.946429 -4.388691,0 -7.946428,-3.557737 -7.946428,-7.946429 0,-4.388691 3.557737,-7.946428 7.946428,-7.946428 4.388692,0 7.946429,3.557737 7.946429,7.946428 z"
       transform="matrix(0.78334216,0,0,0.78076329,4.676261,1027.4307)" />
    <path
       style="fill:#9b9b9b;fill-opacity:1;stroke:none"
       d="m 28.021996,1039.5424 0.63993,2.8412 1.105333,0.29 0.349053,8.5236 0.930807,0 -0.465404,-8.5816 0.63993,-0.3479 0.349053,-2.6093 -0.581754,0 -0.465404,2.0294 -0.232701,-1.8555 -0.756282,0 -0.11635,1.7396 -0.698106,-1.7975 z"
       id="path3783"
       inkscape:connector-curvature="0" />
    <path
       style="fill:#9b9b9b;fill-opacity:1;stroke:none"
       d="m 12.893587,1038.5289 0.232702,13.3943 1.105333,0 -0.290877,-8.2337 c 0,0 0.581754,-1.5076 0.639929,-2.8412 0.05818,-1.3337 -1.047157,-2.3774 -1.047157,-2.3774 z"
       id="path3785"
       inkscape:connector-curvature="0" />
  </g>
</svg>
