<?xml version="1.0" encoding="UTF-8" standalone="no"?>
<!-- Created with Inkscape (http://www.inkscape.org/) -->

<svg
   xmlns:dc="http://purl.org/dc/elements/1.1/"
   xmlns:cc="http://creativecommons.org/ns#"
   xmlns:rdf="http://www.w3.org/1999/02/22-rdf-syntax-ns#"
   xmlns:svg="http://www.w3.org/2000/svg"
   xmlns="http://www.w3.org/2000/svg"
   xmlns:sodipodi="http://sodipodi.sourceforge.net/DTD/sodipodi-0.dtd"
   xmlns:inkscape="http://www.inkscape.org/namespaces/inkscape"
   width="32"
   height="32"
   id="svg2"
   version="1.1"
   inkscape:version="0.48.4 r9939"
   sodipodi:docname="gui_new_customer.svg"
   inkscape:export-filename="C:\Users\Leif\Programmering\HTML5\SmartHome\www\images\gui_new_customer.png"
   inkscape:export-xdpi="90"
   inkscape:export-ydpi="90">
  <defs
     id="defs4">
    <inkscape:path-effect
       effect="spiro"
       id="path-effect3778"
       is_visible="true" />
  </defs>
  <sodipodi:namedview
     id="base"
     pagecolor="#ffffff"
     bordercolor="#666666"
     borderopacity="1.0"
     inkscape:pageopacity="0.0"
     inkscape:pageshadow="2"
     inkscape:zoom="15.839192"
     inkscape:cx="13.691484"
     inkscape:cy="16.04474"
     inkscape:document-units="px"
     inkscape:current-layer="layer1"
     showgrid="false"
     inkscape:window-width="1149"
     inkscape:window-height="744"
     inkscape:window-x="395"
     inkscape:window-y="154"
     inkscape:window-maximized="0" />
  <metadata
     id="metadata7">
    <rdf:RDF>
      <cc:Work
         rdf:about="">
        <dc:format>image/svg+xml</dc:format>
        <dc:type
           rdf:resource="http://purl.org/dc/dcmitype/StillImage" />
        <dc:title></dc:title>
      </cc:Work>
    </rdf:RDF>
  </metadata>
  <g
     inkscape:label="Layer 1"
     inkscape:groupmode="layer"
     id="layer1"
     transform="translate(0,-1020.3622)">
    <g
       id="g3838"
       transform="matrix(1.3405748,0,0,1.3405748,-0.15137862,-347.61492)">
      <rect
         y="1020.9213"
         x="0.69447982"
         height="20.960665"
         width="20.076782"
         id="rect3758"
         style="fill:#d1d1d1;fill-opacity:1;fill-rule:nonzero;stroke:#c8c077;stroke-width:0.37297434;stroke-linecap:square;stroke-linejoin:bevel;stroke-miterlimit:4;stroke-opacity:1;stroke-dasharray:none;stroke-dashoffset:2.4" />
      <path
         inkscape:connector-curvature="0"
         id="path3760"
         d="m 2.5885159,1023.2572 c 0.2525382,-0.1263 15.4048261,0 15.4048261,0"
         style="fill:none;stroke:#000000;stroke-width:0.74594867px;stroke-linecap:butt;stroke-linejoin:miter;stroke-opacity:1" />
      <path
         style="fill:none;stroke:#000000;stroke-width:0.74594867px;stroke-linecap:butt;stroke-linejoin:miter;stroke-opacity:1"
         d="m 2.5885159,1025.6438 c 0.2525382,-0.1263 15.4048261,0 15.4048261,0"
         id="path3762"
         inkscape:connector-curvature="0" />
      <path
         inkscape:connector-curvature="0"
         id="path3764"
         d="m 2.5885159,1028.0302 c 0.2525382,-0.1263 15.4048261,0 15.4048261,0"
         style="fill:none;stroke:#000000;stroke-width:0.74594867px;stroke-linecap:butt;stroke-linejoin:miter;stroke-opacity:1" />
      <path
         style="fill:none;stroke:#000000;stroke-width:0.74594867px;stroke-linecap:butt;stroke-linejoin:miter;stroke-opacity:1"
         d="m 2.5885159,1030.4167 c 0.2525382,-0.1263 15.4048261,0 15.4048261,0"
         id="path3766"
         inkscape:connector-curvature="0" />
      <path
         inkscape:connector-curvature="0"
         id="path3768"
         d="m 2.5885159,1032.8032 c 0.2525382,-0.1263 15.4048261,0 15.4048261,0"
         style="fill:none;stroke:#000000;stroke-width:0.74594867px;stroke-linecap:butt;stroke-linejoin:miter;stroke-opacity:1" />
      <path
         inkscape:connector-curvature="0"
         id="path3772"
         d="m 2.2025739,1040.1845 c 0.128573,-0.02 7.8429521,0 7.8429521,0"
         style="fill:none;stroke:#000000;stroke-width:0.17016283px;stroke-linecap:butt;stroke-linejoin:miter;stroke-opacity:1" />
      <path
         inkscape:connector-curvature="0"
         id="path3774"
         d="m 3.0935922,1037.7151 c -0.1775948,0.095 -0.4449559,-0.1314 -0.5017193,0.2045 -0.065025,0.1178 -0.125376,0.089 -0.02474,0 -0.1105628,0.2546 -0.2976299,0.4642 -0.2311557,0.758 -0.032993,0.1802 0.039978,0.4216 0.2731935,0.3605 0.2806601,-10e-5 0.5840094,0.069 0.7666116,-0.192 0.3401585,-0.144 0.5175907,-0.4702 0.7616585,-0.7216 0.1093916,-0.118 0.2450093,-0.4431 0.029439,-0.1597 -0.249691,0.2113 -0.3629641,0.5583 -0.5050767,0.8208 0.1155134,0.2104 0.5224594,-0.081 0.6944799,-0.1894 0.4625987,-0.2578 0.8267481,-0.643 1.2065623,-1.003 0.1030124,-0.1062 0.2508816,-0.2009 0.1893168,-0.1392 0.1896693,-0.215 0.4298915,-0.3916 0.5936585,-0.625 0.2062759,-0.3022 -0.199989,0.2006 -0.2437852,0.3319 -0.1542533,0.3279 -0.5036906,0.5508 -0.5453906,0.927 -0.028818,0.2503 -0.2527653,0.5959 -0.066629,0.7946 0.1050459,0.188 0.2957011,0.1662 0.5042616,0.1556 0.3963601,0.07 0.700098,-0.2525 1.0662604,-0.3377 0.2153006,-0.183 0.4118747,-0.4935 0.7050117,-0.5461 0.012662,0.3248 -0.1960038,0.6254 -0.1262691,0.9653 -0.072372,0.2749 0.2577471,0.4055 0.4820843,0.3605 0.3418188,0.064 0.6081735,-0.195 0.9053355,-0.319 0.358387,-0.1448 0.6948111,-0.3414 1.0802268,-0.3995 0.253019,-0.1778 0.629369,-0.226 0.910039,-0.1338 0.153633,0.096 0.269965,0.1987 0.513654,0.1578 0.02871,0 0.05742,0 0.08613,0"
         style="fill:#d1d1d1;fill-opacity:1;fill-rule:nonzero;stroke:#4894ef;stroke-width:0.37297434;stroke-linecap:square;stroke-linejoin:bevel;stroke-miterlimit:4;stroke-opacity:1;stroke-dasharray:none;stroke-dashoffset:2.4" />
    </g>
    <path
       style="fill:#e3db53;fill-opacity:1;fill-rule:nonzero;stroke:#a99e22;stroke-width:0.46733093;stroke-linecap:square;stroke-linejoin:bevel;stroke-miterlimit:4;stroke-opacity:1;stroke-dashoffset:2.4"
       inkscape:transform-center-x="-0.1667918"
       inkscape:transform-center-y="-0.11163642"
       d="m 27.535504,1051.4659 c -1.116573,0.8005 -4.567826,-4.0557 -5.941592,-4.0642 -1.373769,-0.013 -4.88691,4.8025 -5.993142,3.9879 -1.10623,-0.815 2.444272,-5.5989 2.028122,-6.9087 -0.416158,-1.3096 -6.076363,-3.165 -5.643475,-4.4691 0.432881,-1.3043 6.078463,0.5951 7.195037,-0.2054 1.116574,-0.8007 1.131514,-6.7588 2.50528,-6.75 1.373768,0.012 1.31243,5.9666 2.418661,6.7815 1.106236,0.8149 6.775675,-1.0122 7.191825,0.2975 0.416151,1.3097 -5.267344,3.0923 -5.700227,4.3966 -0.43288,1.3044 3.056087,6.1334 1.939511,6.9339 z"
       id="path2985"
       inkscape:connector-curvature="0" />
  </g>
</svg>
