<?xml version="1.0" encoding="UTF-8" standalone="no"?>
<!-- Created with Inkscape (http://www.inkscape.org/) -->

<svg
   xmlns:dc="http://purl.org/dc/elements/1.1/"
   xmlns:cc="http://creativecommons.org/ns#"
   xmlns:rdf="http://www.w3.org/1999/02/22-rdf-syntax-ns#"
   xmlns:svg="http://www.w3.org/2000/svg"
   xmlns="http://www.w3.org/2000/svg"
   xmlns:xlink="http://www.w3.org/1999/xlink"
   xmlns:sodipodi="http://sodipodi.sourceforge.net/DTD/sodipodi-0.dtd"
   xmlns:inkscape="http://www.inkscape.org/namespaces/inkscape"
   width="1024"
   height="960"
   id="svg4494"
   version="1.1"
   inkscape:version="0.48.4 r9939"
   sodipodi:docname="logo_fridge.svg"
   inkscape:export-filename="C:\Users\Leif\Programmering\HTML5\SmartHome\www\images\logo_fridge.png"
   inkscape:export-xdpi="45"
   inkscape:export-ydpi="45">
  <defs
     id="defs4496">
    <linearGradient
       id="linearGradient6713">
      <stop
         style="stop-color:#bcbcbc;stop-opacity:1;"
         offset="0"
         id="stop6715" />
      <stop
         style="stop-color:#818181;stop-opacity:1;"
         offset="1"
         id="stop6717" />
    </linearGradient>
    <linearGradient
       id="linearGradient5210">
      <stop
         id="stop5212"
         offset="0"
         style="stop-color:#a6a6a6;stop-opacity:1;" />
      <stop
         id="stop5214"
         offset="1"
         style="stop-color:#6a6a6a;stop-opacity:1;" />
    </linearGradient>
    <linearGradient
       id="linearGradient5174">
      <stop
         style="stop-color:#69a5a2;stop-opacity:1;"
         offset="0"
         id="stop5176" />
      <stop
         style="stop-color:#69a5a2;stop-opacity:0;"
         offset="1"
         id="stop5178" />
    </linearGradient>
    <linearGradient
       inkscape:collect="always"
       id="linearGradient5164">
      <stop
         style="stop-color:#69a5a2;stop-opacity:1;"
         offset="0"
         id="stop5166" />
      <stop
         style="stop-color:#69a5a2;stop-opacity:0;"
         offset="1"
         id="stop5168" />
    </linearGradient>
    <linearGradient
       inkscape:collect="always"
       xlink:href="#linearGradient5164"
       id="linearGradient5170"
       x1="385.55557"
       y1="808.34174"
       x2="381.15619"
       y2="911.19885"
       gradientUnits="userSpaceOnUse" />
    <linearGradient
       inkscape:collect="always"
       xlink:href="#linearGradient5174"
       id="linearGradient5180"
       x1="359.5"
       y1="700.93365"
       x2="274.71875"
       y2="702.36224"
       gradientUnits="userSpaceOnUse" />
    <linearGradient
       inkscape:collect="always"
       xlink:href="#linearGradient5210"
       id="linearGradient5208"
       x1="380.71429"
       y1="723.79077"
       x2="380.71429"
       y2="675.93365"
       gradientUnits="userSpaceOnUse"
       gradientTransform="translate(0,28.571428)" />
    <linearGradient
       inkscape:collect="always"
       xlink:href="#linearGradient5210"
       id="linearGradient5218"
       gradientUnits="userSpaceOnUse"
       x1="380.71429"
       y1="723.79077"
       x2="380.71429"
       y2="675.93365"
       gradientTransform="translate(0,97.142858)" />
    <linearGradient
       inkscape:collect="always"
       xlink:href="#linearGradient5210"
       id="linearGradient5222"
       gradientUnits="userSpaceOnUse"
       gradientTransform="translate(0,-42.857143)"
       x1="380.71429"
       y1="723.79077"
       x2="380.71429"
       y2="675.93365" />
    <linearGradient
       inkscape:collect="always"
       xlink:href="#linearGradient6713"
       id="linearGradient6711"
       x1="0"
       y1="577.23535"
       x2="1030.3556"
       y2="577.23535"
       gradientUnits="userSpaceOnUse"
       spreadMethod="pad"
       gradientTransform="matrix(0.99383165,0,0,0.98994954,0,0.92828021)" />
  </defs>
  <sodipodi:namedview
     id="base"
     pagecolor="#ffffff"
     bordercolor="#666666"
     borderopacity="1.0"
     inkscape:pageopacity="1"
     inkscape:pageshadow="2"
     inkscape:zoom="0.35"
     inkscape:cx="702.43943"
     inkscape:cy="303.02335"
     inkscape:document-units="px"
     inkscape:current-layer="layer1"
     showgrid="false"
     inkscape:window-width="1129"
     inkscape:window-height="588"
     inkscape:window-x="258"
     inkscape:window-y="371"
     inkscape:window-maximized="0" />
  <metadata
     id="metadata4499">
    <rdf:RDF>
      <cc:Work
         rdf:about="">
        <dc:format>image/svg+xml</dc:format>
        <dc:type
           rdf:resource="http://purl.org/dc/dcmitype/StillImage" />
        <dc:title></dc:title>
      </cc:Work>
    </rdf:RDF>
  </metadata>
  <g
     inkscape:label="Layer 1"
     inkscape:groupmode="layer"
     id="layer1"
     transform="translate(0,-92.36215)">
    <rect
       style="fill:url(#linearGradient6711);fill-opacity:1;fill-rule:nonzero;stroke:none"
       id="rect5249"
       width="1024"
       height="960"
       x="0"
       y="92.362152"
       sodipodi:insensitive="true" />
    <g
       id="g5125"
       transform="translate(343.70505,16.043496)">
      <path
         style="fill:#cf4848;fill-opacity:1;stroke:none"
         d="m 173.87685,635.62738 c 0,0 31.33222,60.57565 27.15458,110.70722 -4.17762,50.13156 -18.79933,198.43746 -18.79933,198.43746 l 390.60846,-2.08882 c 0,0 -31.33223,-148.30588 -27.15461,-190.0822 4.17764,-41.7763 10.44409,-131.59536 10.44409,-131.59536 L 512.26492,568.78529 355.60376,449.72282 169.6992,614.73923 z"
         id="path5065"
         inkscape:connector-curvature="0"
         sodipodi:nodetypes="csccsccccc" />
      <path
         style="fill:#3d3d3d;fill-opacity:1;stroke:none"
         d="m 102.85712,641.26719 c 54.30919,-39.68749 173.37168,-135.773 208.88152,-187.99337 35.50987,-52.22039 37.59869,-68.93091 37.59869,-68.93091 l 54.30919,-2.08882 c 0,0 -6.26645,31.33223 33.42105,98.17433 39.68748,66.84208 208.88153,156.66113 208.88153,156.66113 l -31.33224,29.24342 c 0,0 -160.83877,-129.50654 -204.70389,-154.57234 -43.86512,-25.06576 -52.22039,-39.68748 -52.22039,-39.68748 0,0 -52.22037,33.42104 -89.81905,73.10855 -37.59869,39.68748 -137.86182,127.41772 -137.86182,127.41772 z"
         id="path5067"
         inkscape:connector-curvature="0" />
      <path
         style="fill:#97e0ed;fill-opacity:1;fill-rule:nonzero;stroke:#ffffff;stroke-width:4.03067541;stroke-linecap:square;stroke-linejoin:miter;stroke-miterlimit:4;stroke-opacity:1;stroke-dashoffset:2.4"
         d="m 258.0303,745.28854 104.21054,0 0,51.18172 0,51.1817 -104.21054,0 c 0,0 4.43789,-37.41681 4.43789,-54.73201 0,-17.3152 -4.43789,-47.63141 -4.43789,-47.63141 z"
         id="path5069"
         inkscape:connector-curvature="0"
         sodipodi:nodetypes="ccccczc" />
      <path
         style="fill:#97e0ed;fill-opacity:1;fill-rule:nonzero;stroke:#ffffff;stroke-width:4.03067541;stroke-linecap:square;stroke-linejoin:miter;stroke-miterlimit:4;stroke-opacity:1;stroke-dashoffset:2.4"
         d="m 381.40349,745.28854 104.21055,0 c 0,0 -2.66274,34.12114 -2.66274,51.18172 0,17.06056 2.66274,51.1817 2.66274,51.1817 l -104.21055,0 z"
         id="path5071"
         inkscape:connector-curvature="0"
         sodipodi:nodetypes="cczccc" />
      <rect
         style="fill:#97e0ed;fill-opacity:1;fill-rule:nonzero;stroke:#ffffff;stroke-width:3.23934031;stroke-linecap:square;stroke-linejoin:miter;stroke-miterlimit:4;stroke-opacity:1;stroke-dasharray:none;stroke-dashoffset:2.4"
         id="rect5073"
         width="83.751091"
         height="82.266609"
         x="316.12143"
         y="570.47681"
         rx="0"
         ry="82.266609" />
      <path
         style="fill:#3d3d3d;fill-opacity:1;stroke:none"
         d="m 290.8505,503.3041 0,-88.08477 -41.77632,0 0,113.25184 z"
         id="path5075"
         inkscape:connector-curvature="0" />
    </g>
    <text
       xml:space="preserve"
       style="font-size:126.16963196px;font-style:normal;font-variant:normal;font-weight:normal;font-stretch:normal;line-height:125%;letter-spacing:0px;word-spacing:0px;fill:#000000;fill-opacity:1;stroke:none;font-family:Arial;-inkscape-font-specification:Arial"
       x="48.897236"
       y="244.91786"
       id="text5107"
       sodipodi:linespacing="125%"><tspan
         sodipodi:role="line"
         id="tspan5109"
         x="48.897236"
         y="244.91786">INTELIGENT</tspan></text>
    <text
       xml:space="preserve"
       style="font-size:163.63061523px;font-style:normal;font-variant:normal;font-weight:normal;font-stretch:normal;line-height:125%;letter-spacing:0px;word-spacing:0px;fill:#000000;fill-opacity:1;stroke:none;font-family:Arial;-inkscape-font-specification:Arial"
       x="47.241207"
       y="410.86447"
       id="text5111"
       sodipodi:linespacing="125%"><tspan
         sodipodi:role="line"
         id="tspan5113"
         x="47.241207"
         y="410.86447">HOME</tspan></text>
    <g
       id="g5230"
       transform="matrix(0.71676917,0,0,0.71676917,-15.208516,313.04289)">
      <path
         sodipodi:nodetypes="csssssccc"
         inkscape:connector-curvature="0"
         id="path5145"
         d="m 460,900.93361 c 0,0 71.42857,-62.85714 77.14286,-97.14286 2.85714,-17.14285 1.1518,-70.1911 2.82994,-147.80512 1.7705,-81.88543 7.60997,-111.17314 -8.54422,-123.62345 -13.73063,-10.58243 -54.44492,-9.15386 -95.29797,-10.43682 -40.85306,-1.28297 -81.84488,-5.27746 -96.1306,1.86539 -28.57143,14.28571 -61.42857,44.28572 -61.42857,44.28572 l 70,118.57142 z"
         style="fill:#72dfda;fill-opacity:1;stroke:#000000;stroke-opacity:1" />
      <path
         style="fill:#72dfdb;fill-opacity:1;fill-rule:nonzero;stroke:#000000;stroke-opacity:1"
         d="m 306.71576,555.21937 129.4256,0 c 21.13196,0 38.14434,17.01238 38.14434,38.14434 l 0,277.99702 c 0,21.13197 -17.01238,38.14434 -38.14434,38.14434 l -129.4256,0 c -21.13196,0 -38.14434,-17.01237 -38.14434,-38.14434 l 0,-277.99702 c 0,-21.13196 17.01238,-38.14434 38.14434,-38.14434 z"
         id="path5148"
         inkscape:connector-curvature="0" />
      <path
         inkscape:connector-curvature="0"
         id="path5150"
         d="m 467.14286,570.93361 64.28571,-35.71429"
         style="fill:none;stroke:#000000;stroke-width:1px;stroke-linecap:butt;stroke-linejoin:miter;stroke-opacity:1" />
      <path
         sodipodi:nodetypes="sssssssss"
         inkscape:connector-curvature="0"
         id="path5152"
         d="m 171.00147,592.07651 59.4256,-34 c 18.34202,-10.49428 38.14434,17.01238 38.14434,38.14434 l 0,277.99702 c 0,21.13197 -19.80232,27.65006 -38.14434,38.14434 l -59.4256,34 c -18.34202,10.49428 -38.14434,-17.01237 -38.14434,-38.14434 l 0,-277.99702 c 0,-21.13196 19.80232,-27.65006 38.14434,-38.14434 z"
         style="fill:#72dfda;fill-opacity:1;fill-rule:nonzero;stroke:#000000;stroke-opacity:1" />
      <path
         sodipodi:nodetypes="cscssssc"
         inkscape:connector-curvature="0"
         id="path5154"
         d="m 271.42857,885.21933 c 0,0 80,-78.57143 100,-80 20,-1.42858 103.57143,2.14285 103.57143,2.14285 0,0 7.85714,73.57143 -7.85714,86.42857 -15.71429,12.85715 -15.71429,17.14286 -44.28572,15.71429 -28.57143,-1.42857 -90,5.71429 -111.42857,0 -21.42857,-5.71429 -30,-2.85714 -35.71428,-12.85714 -5.71429,-10 -4.28572,-11.42857 -4.28572,-11.42857 z"
         style="fill:url(#linearGradient5170);fill-opacity:1;stroke:none" />
      <path
         sodipodi:nodetypes="cscsssc"
         inkscape:connector-curvature="0"
         id="path5172"
         d="m 268.57143,886.6479 c 0,0 84.28571,-70 92.85714,-74.28572 8.57143,-4.28571 2.14286,-256.42857 2.14286,-256.42857 0,0 -42.14286,-0.71428 -55,-0.71428 -12.85714,0 -28.57143,0 -32.85714,12.85714 -4.28572,12.85714 -8.57143,18.57143 -8.57143,34.28571 0,15.71429 1.42857,284.28572 1.42857,284.28572 z"
         style="fill:url(#linearGradient5180);fill-opacity:1;stroke:none" />
      <path
         sodipodi:nodetypes="cscssscsc"
         inkscape:connector-curvature="0"
         id="path5182"
         d="m 360,810.07647 c 0,0 10,-4.28572 20,-3.57143 10,0.71429 95.71429,2.28571 95.71429,2.28571 0,0 -0.71429,-178.57142 -1.42858,-197.14285 -0.71428,-18.57143 1.42858,-34.28572 -7.85714,-42.85715 -9.28571,-8.57143 -22.14286,-13.57143 -37.14286,-12.85714 -15,0.71429 -66.42857,-0.71429 -66.42857,-0.71429 0,0 1.42857,210.71429 1.42857,220.71429 0,10 -4.28571,34.14286 -4.28571,34.14286 z"
         style="fill:#69a5a2;fill-opacity:1;stroke:none" />
      <path
         sodipodi:nodetypes="ccccc"
         inkscape:connector-curvature="0"
         id="path5192"
         d="M 356.85925,705.21933 277.85714,748.07647 474.2542,749.50505 475,713.07647 c 0,0 -117.41597,-3.57143 -118.14075,-7.85714 z"
         style="fill:url(#linearGradient5208);fill-opacity:1;stroke:none" />
      <path
         style="fill:url(#linearGradient5218);fill-opacity:1;stroke:none"
         d="M 356.85925,773.79076 277.85714,816.6479 474.2542,818.07648 475,781.6479 c 0,0 -117.41597,-3.57143 -118.14075,-7.85714 z"
         id="path5216"
         inkscape:connector-curvature="0"
         sodipodi:nodetypes="ccccc" />
      <path
         style="fill:url(#linearGradient5222);fill-opacity:1;stroke:none"
         d="M 356.85925,633.79075 277.85714,676.64789 474.2542,678.07647 475,641.64789 c 0,0 -117.41597,-3.57143 -118.14075,-7.85714 z"
         id="path5220"
         inkscape:connector-curvature="0"
         sodipodi:nodetypes="ccccc" />
      <path
         inkscape:connector-curvature="0"
         id="path5224"
         d="m 256.57875,652.34177 -109.09648,49.49748 24.24366,0 101.01526,-48.48733 z"
         style="fill:#a6a6a6;fill-opacity:1;stroke:none" />
      <path
         style="fill:#a6a6a6;fill-opacity:1;stroke:none"
         d="m 256.57875,725.07275 -109.09648,49.49748 24.24366,0 101.01526,-48.48733 z"
         id="path5226"
         inkscape:connector-curvature="0" />
      <path
         inkscape:connector-curvature="0"
         id="path5228"
         d="m 256.57875,804.8748 -109.09648,49.49748 24.24366,0 101.01526,-48.48733 z"
         style="fill:#a6a6a6;fill-opacity:1;stroke:none" />
    </g>
    <path
       sodipodi:nodetypes="csssc"
       inkscape:connector-curvature="0"
       id="path5245"
       d="m 285.78736,596.37467 c 2.62582,22.6558 -38.5026,38.2965 -6.23523,36.5677 32.26735,-1.7288 46.52902,12.883 8.08567,15.5444 -38.44335,2.6613 -26.95649,11.4051 -3.59505,14.1646 23.36143,2.7594 3.49093,12.0468 2.90939,34.139"
       style="fill:none;stroke:#000000;stroke-width:3.58384562;stroke-linecap:butt;stroke-linejoin:miter;stroke-miterlimit:4;stroke-opacity:1;stroke-dasharray:none;stroke-dashoffset:0" />
  </g>
</svg>
