<?xml version="1.0" encoding="UTF-8" standalone="no"?>
<!-- Created with Inkscape (http://www.inkscape.org/) -->

<svg
   xmlns:dc="http://purl.org/dc/elements/1.1/"
   xmlns:cc="http://creativecommons.org/ns#"
   xmlns:rdf="http://www.w3.org/1999/02/22-rdf-syntax-ns#"
   xmlns:svg="http://www.w3.org/2000/svg"
   xmlns="http://www.w3.org/2000/svg"
   xmlns:sodipodi="http://sodipodi.sourceforge.net/DTD/sodipodi-0.dtd"
   xmlns:inkscape="http://www.inkscape.org/namespaces/inkscape"
   width="32"
   height="32"
   id="svg2"
   version="1.1"
   inkscape:version="0.48.4 r9939"
   sodipodi:docname="meatballs.svg"
   inkscape:export-filename="C:\Users\Leif\Programmering\HTML5\IntelligentHome\images\meatballs.png"
   inkscape:export-xdpi="90"
   inkscape:export-ydpi="90">
  <defs
     id="defs4">
    <linearGradient
       id="linearGradient5287">
      <stop
         style="stop-color:#989898;stop-opacity:1;"
         offset="0"
         id="stop5289" />
      <stop
         style="stop-color:#989898;stop-opacity:0;"
         offset="1"
         id="stop5291" />
    </linearGradient>
    <inkscape:perspective
       sodipodi:type="inkscape:persp3d"
       inkscape:vp_x="0 : 16 : 1"
       inkscape:vp_y="0 : 1000 : 0"
       inkscape:vp_z="32 : 16 : 1"
       inkscape:persp3d-origin="16 : 10.666667 : 1"
       id="perspective3783" />
  </defs>
  <sodipodi:namedview
     id="base"
     pagecolor="#ffffff"
     bordercolor="#666666"
     borderopacity="1.0"
     inkscape:pageopacity="0.0"
     inkscape:pageshadow="2"
     inkscape:zoom="11.2"
     inkscape:cx="14.320606"
     inkscape:cy="14.028403"
     inkscape:document-units="px"
     inkscape:current-layer="layer1"
     showgrid="false"
     inkscape:window-width="1085"
     inkscape:window-height="787"
     inkscape:window-x="684"
     inkscape:window-y="225"
     inkscape:window-maximized="0"
     showguides="true"
     inkscape:guide-bbox="true">
    <sodipodi:guide
       orientation="1,0"
       position="-9.2857143,15.982143"
       id="guide5434" />
  </sodipodi:namedview>
  <metadata
     id="metadata7">
    <rdf:RDF>
      <cc:Work
         rdf:about="">
        <dc:format>image/svg+xml</dc:format>
        <dc:type
           rdf:resource="http://purl.org/dc/dcmitype/StillImage" />
        <dc:title></dc:title>
      </cc:Work>
    </rdf:RDF>
  </metadata>
  <g
     inkscape:label="Layer 1"
     inkscape:groupmode="layer"
     id="layer1"
     transform="translate(0,-1020.3622)">
    <path
       style="fill:#826159;fill-opacity:1;fill-rule:nonzero;stroke:none"
       d="m 15.892857,1039.2819 c 0,1.0725 -0.434723,2.0435 -1.137576,2.7463 -0.702853,0.7029 -1.673835,1.1376 -2.746352,1.1376 -1.072517,0 -2.0434994,-0.4347 -2.7463522,-1.1376 -0.7028529,-0.7028 -1.1375764,-1.6738 -1.1375764,-2.7463 0,-1.0726 0.4347235,-2.0435 1.1375764,-2.7464 0.7028528,-0.7028 1.6738352,-1.1376 2.7463522,-1.1376 1.072517,0 2.043499,0.4348 2.746352,1.1376 0.702853,0.7029 1.137576,1.6738 1.137576,2.7464 z"
       id="path5526"
       inkscape:connector-curvature="0"
       sodipodi:nodetypes="sssssssss" />
    <path
       sodipodi:nodetypes="sssssssss"
       inkscape:connector-curvature="0"
       id="path5565"
       d="m 22.946428,1039.1926 c 0,1.0725 -0.434723,2.0435 -1.137576,2.7463 -0.702853,0.7029 -1.673835,1.1376 -2.746352,1.1376 -1.072517,0 -2.043499,-0.4347 -2.746352,-1.1376 -0.702853,-0.7028 -1.137576,-1.6738 -1.137576,-2.7463 0,-1.0726 0.434723,-2.0435 1.137576,-2.7464 0.702853,-0.7028 1.673835,-1.1376 2.746352,-1.1376 1.072517,0 2.043499,0.4348 2.746352,1.1376 0.702853,0.7029 1.137576,1.6738 1.137576,2.7464 z"
       style="fill:#826159;fill-opacity:1;fill-rule:nonzero;stroke:none" />
    <path
       style="fill:#826159;fill-opacity:1;fill-rule:nonzero;stroke:none"
       d="m 19.642857,1033.1211 c 0,1.0725 -0.434723,2.0435 -1.137576,2.7463 -0.702853,0.7029 -1.673835,1.1376 -2.746352,1.1376 -1.072517,0 -2.043499,-0.4347 -2.746352,-1.1376 -0.702853,-0.7028 -1.137576,-1.6738 -1.137576,-2.7463 0,-1.0726 0.434723,-2.0435 1.137576,-2.7464 0.702853,-0.7028 1.673835,-1.1376 2.746352,-1.1376 1.072517,0 2.043499,0.4348 2.746352,1.1376 0.702853,0.7029 1.137576,1.6738 1.137576,2.7464 z"
       id="path5567"
       inkscape:connector-curvature="0"
       sodipodi:nodetypes="sssssssss" />
  </g>
</svg>
